<svg width="56" height="72" viewBox="0 0 56 72" fill="none" xmlns="http://www.w3.org/2000/svg">
<path fill-rule="evenodd" clip-rule="evenodd" d="M27.7947 70.8134C42.5953 70.8134 54.5936 58.8199 54.5936 44.0252C54.5936 29.2305 42.5953 17.237 27.7947 17.237C12.9941 17.237 0.99585 29.2305 0.99585 44.0252C0.99585 58.8199 12.9941 70.8134 27.7947 70.8134Z" fill="white" fill-opacity="0.7" stroke="#EFC638"/>
<mask id="mask0_0_984" style="mask-type:alpha" maskUnits="userSpaceOnUse" x="6" y="0" width="45" height="52">
<path fill-rule="evenodd" clip-rule="evenodd" d="M50.1173 25.954V0.533752H6.25049V25.954V51.3743H50.1173V25.954Z" fill="white"/>
</mask>
<g mask="url(#mask0_0_984)">
<path fill-rule="evenodd" clip-rule="evenodd" d="M50.1173 22.4315C50.1173 41.2924 28.1839 51.3743 28.1839 51.3743C28.1839 51.3743 6.25049 40.6623 6.25049 22.4315C6.25049 10.3377 16.0705 0.533752 28.1839 0.533752C40.2974 0.533752 50.1173 10.3377 50.1173 22.4315Z" fill="#F0C738"/>
</g>
<path fill-rule="evenodd" clip-rule="evenodd" d="M28.2127 27.6529C28.5298 27.6529 28.7892 27.9119 28.7892 28.2284V30.5592L29.2791 30.5016C32.9682 30.0124 35.8504 27.1061 36.3404 23.4518L36.3979 22.9627H34.0634C33.7464 22.9627 33.487 22.7037 33.487 22.3871C33.487 22.0706 33.7464 21.8117 34.0634 21.8117H36.3979L36.3404 21.3225C35.8504 17.6394 32.9394 14.7619 29.2791 14.2728L28.7892 14.1865V16.5172C28.7892 16.8337 28.5298 17.0926 28.2127 17.0926C27.8956 17.0926 27.6362 16.8337 27.6362 16.5172V14.1865L27.1463 14.244C23.4572 14.7331 20.575 17.6394 20.085 21.2937L19.9987 21.8117H22.3332C22.6501 21.8117 22.9096 22.0706 22.9096 22.3871C22.9096 22.7037 22.6501 22.9627 22.3332 22.9627H19.9987L20.0562 23.4518C20.5462 27.1349 23.4572 30.0124 27.1175 30.5016L27.6074 30.5592V28.2284C27.6362 27.9119 27.8956 27.6529 28.2127 27.6529ZM28.2127 34.7026C27.8956 34.7026 27.6362 34.4437 27.6362 34.1272V31.7677L27.2616 31.7389C22.8807 31.2785 19.3357 27.768 18.9034 23.3942L18.8169 22.9627H16.4824C16.1654 22.9627 15.906 22.7037 15.906 22.3871C15.906 22.0706 16.1654 21.8117 16.4824 21.8117H18.8457L18.8745 21.4376C19.3357 17.0638 22.8519 13.5246 27.2328 13.0931L27.6074 13.0643V10.676C27.6074 10.3595 27.8668 10.1005 28.1839 10.1005C28.5009 10.1005 28.7604 10.3595 28.7604 10.676V13.0355L29.135 13.0643C33.5159 13.5246 37.0609 17.0351 37.4932 21.4088L37.522 21.7829H39.8854C40.2023 21.7829 40.4618 22.0418 40.4618 22.3584C40.4618 22.6749 40.2023 22.9339 39.8854 22.9339H37.522L37.4932 23.3079C37.032 27.6817 33.5159 31.2209 29.135 31.6526L28.7892 31.7677V34.1272C28.7892 34.4437 28.5298 34.7026 28.2127 34.7026Z" fill="white"/>
</svg>
