<svg width="45" height="53" viewBox="0 0 45 53" fill="none" xmlns="http://www.w3.org/2000/svg">
<mask id="mask0_0_1501" style="mask-type:alpha" maskUnits="userSpaceOnUse" x="0" y="0" width="45" height="52">
<path fill-rule="evenodd" clip-rule="evenodd" d="M44.1173 25.9541V0.533781H0.250488V25.9541V51.3743H44.1173V25.9541Z" fill="white"/>
</mask>
<g mask="url(#mask0_0_1501)">
<path fill-rule="evenodd" clip-rule="evenodd" d="M44.1173 22.4315C44.1173 41.2925 22.1839 51.3743 22.1839 51.3743C22.1839 51.3743 0.250488 40.6623 0.250488 22.4315C0.250488 10.3378 10.0705 0.533772 22.1839 0.533772C34.2974 0.533772 44.1173 10.3378 44.1173 22.4315Z" fill="#F0C738"/>
</g>
<path fill-rule="evenodd" clip-rule="evenodd" d="M22.2127 27.653C22.5298 27.653 22.7892 27.912 22.7892 28.2285V30.5592L23.2791 30.5017C26.9682 30.0125 29.8504 27.1062 30.3404 23.4519L30.3979 22.9628H28.0634C27.7464 22.9628 27.487 22.7038 27.487 22.3872C27.487 22.0707 27.7464 21.8118 28.0634 21.8118H30.3979L30.3404 21.3226C29.8504 17.6394 26.9394 14.762 23.2791 14.2729L22.7892 14.1865V16.5173C22.7892 16.8338 22.5298 17.0927 22.2127 17.0927C21.8956 17.0927 21.6362 16.8338 21.6362 16.5173V14.1865L21.1463 14.2441C17.4572 14.7332 14.575 17.6394 14.085 21.2938L13.9987 21.8118H16.3332C16.6501 21.8118 16.9096 22.0707 16.9096 22.3872C16.9096 22.7038 16.6501 22.9628 16.3332 22.9628H13.9987L14.0562 23.4519C14.5462 27.135 17.4572 30.0125 21.1175 30.5017L21.6074 30.5592V28.2285C21.6362 27.912 21.8956 27.653 22.2127 27.653ZM22.2127 34.7027C21.8956 34.7027 21.6362 34.4438 21.6362 34.1272V31.7677L21.2616 31.739C16.8807 31.2785 13.3357 27.7681 12.9034 23.3943L12.8169 22.9628H10.4824C10.1654 22.9628 9.90601 22.7038 9.90601 22.3872C9.90601 22.0707 10.1654 21.8118 10.4824 21.8118H12.8457L12.8745 21.4377C13.3357 17.0639 16.8519 13.5247 21.2328 13.0931L21.6074 13.0643V10.6761C21.6074 10.3595 21.8668 10.1005 22.1839 10.1005C22.5009 10.1005 22.7604 10.3595 22.7604 10.6761V13.0356L23.135 13.0643C27.5159 13.5247 31.0609 17.0351 31.4932 21.4089L31.522 21.783H33.8854C34.2023 21.783 34.4618 22.0419 34.4618 22.3584C34.4618 22.675 34.2023 22.934 33.8854 22.934H31.522L31.4932 23.308C31.032 27.6817 27.5159 31.221 23.135 31.6526L22.7892 31.7677V34.1272C22.7892 34.4438 22.5298 34.7027 22.2127 34.7027Z" fill="white"/>
</svg>
