<svg width="120" height="38" viewBox="0 0 120 38" fill="none" xmlns="http://www.w3.org/2000/svg">
<path fill-rule="evenodd" clip-rule="evenodd" d="M76.9506 9.36652C76.7761 9.21153 76.5668 9.13379 76.3243 9.13379C75.9752 9.13379 75.701 9.27423 75.5007 9.55511C75.3018 9.83549 75.2002 10.1946 75.2002 10.633C75.2002 11.0538 75.2964 11.3959 75.4883 11.6587C75.6906 11.9391 75.9648 12.0795 76.3065 12.0795C76.6139 12.0795 76.8599 11.9627 77.0468 11.7289C77.2263 11.5127 77.3151 11.2524 77.3151 10.949V10.2388C77.3151 10.1159 77.3066 10.0166 77.2893 9.94082C77.2367 9.7131 77.1232 9.5215 76.9506 9.36652Z" fill="white"/>
<path fill-rule="evenodd" clip-rule="evenodd" d="M66.3707 9.09039C65.9939 9.09039 65.7078 9.26043 65.5124 9.60049C65.3448 9.88137 65.261 10.2244 65.261 10.6287C65.261 11.0219 65.3448 11.3585 65.5124 11.6399C65.7147 11.9794 65.9973 12.1495 66.3623 12.1495C66.7198 12.1495 66.999 11.9764 67.2013 11.6314C67.3759 11.344 67.4612 11.0044 67.4612 10.6112C67.4612 10.2184 67.3778 9.88137 67.2102 9.60049C67.0149 9.26043 66.7337 9.09039 66.3707 9.09039Z" fill="white"/>
<path fill-rule="evenodd" clip-rule="evenodd" d="M71.6528 11.9524C71.8288 11.821 71.9374 11.6529 71.9776 11.4483C71.988 11.4017 71.9929 11.346 71.9929 11.2818V10.6247C70.9601 10.6072 70.4434 10.8936 70.4434 11.4834C70.4434 11.7056 70.5029 11.8721 70.6234 11.9835C70.7439 12.0938 70.8971 12.1495 71.0805 12.1495C71.2863 12.1495 71.4782 12.0838 71.6528 11.9524Z" fill="white"/>
<path fill-rule="evenodd" clip-rule="evenodd" d="M62.8773 21.7603C62.4063 21.7603 61.9803 21.9193 61.598 22.2332C61.2162 22.5492 60.9673 22.962 60.8493 23.4741C60.7907 23.7124 60.761 23.9085 60.761 24.062V25.5075C60.761 26.1385 60.9524 26.6706 61.3327 27.105C61.715 27.5389 62.2124 27.756 62.8248 27.756C63.5423 27.756 64.1007 27.4762 64.5003 26.9179C64.8995 26.3582 65.1003 25.6203 65.1003 24.7045C65.1003 23.8608 64.9119 23.1642 64.535 22.6169C64.1235 22.0461 63.5721 21.7603 62.8773 21.7603Z" fill="white"/>
<path fill-rule="evenodd" clip-rule="evenodd" d="M84.2219 12.1495C84.5794 12.1495 84.8606 11.9765 85.0629 11.6309C85.236 11.344 85.3228 11.0039 85.3228 10.6112C85.3228 10.2185 85.2394 9.88143 85.0718 9.60055C84.8745 9.25999 84.5953 9.09045 84.2309 9.09045C83.8555 9.09045 83.5694 9.25999 83.372 9.60055C83.2044 9.88143 83.1206 10.2245 83.1206 10.6283C83.1206 11.0215 83.2044 11.3586 83.372 11.6399C83.5743 11.9795 83.8575 12.1495 84.2219 12.1495Z" fill="white"/>
<path fill-rule="evenodd" clip-rule="evenodd" d="M41.6588 11.4397C42.0486 11.0364 42.244 10.4491 42.244 9.67764C42.244 8.98798 42.0635 8.45932 41.7025 8.09067C41.341 7.72302 40.8144 7.53894 40.1207 7.53894C39.8256 7.53894 39.5742 7.559 39.3669 7.60013V12.018C39.482 12.036 39.6932 12.0446 39.9992 12.0446C40.7157 12.0446 41.2686 11.8429 41.6588 11.4397Z" fill="white"/>
<path fill-rule="evenodd" clip-rule="evenodd" d="M42.2565 18.6559H42.2213C42.1037 19.168 41.9153 19.9229 41.6565 20.922L40.6692 24.0619H43.8621L42.8565 20.922C42.7503 20.6005 42.5505 19.8452 42.2565 18.6559Z" fill="white"/>
<path fill-rule="evenodd" clip-rule="evenodd" d="M46.4035 9.09039C46.0276 9.09039 45.7415 9.26043 45.5451 9.60049C45.3775 9.88137 45.2937 10.2244 45.2937 10.6287C45.2937 11.0219 45.3775 11.3585 45.5451 11.6399C45.7474 11.9794 46.0301 12.1495 46.3945 12.1495C46.7525 12.1495 47.0327 11.9764 47.235 11.6314C47.4086 11.344 47.4949 11.0044 47.4949 10.6112C47.4949 10.2184 47.4111 9.88137 47.2435 9.60049C47.0476 9.26043 46.7674 9.09039 46.4035 9.09039Z" fill="white"/>
<path fill-rule="evenodd" clip-rule="evenodd" d="M53.017 21.7603C52.5469 21.7603 52.12 21.9193 51.7387 22.2332C51.3558 22.5492 51.1059 22.962 50.9884 23.4741C50.9294 23.7124 50.9006 23.9085 50.9006 24.062V25.5075C50.9006 26.1385 51.0915 26.6706 51.4739 27.105C51.8557 27.5389 52.3525 27.756 52.9644 27.756C53.6815 27.756 54.2403 27.4762 54.64 26.9179C55.0396 26.3582 55.2395 25.6203 55.2395 24.7045C55.2395 23.8608 55.0515 23.1642 54.6752 22.6169C54.2636 22.0461 53.7107 21.7603 53.017 21.7603Z" fill="white"/>
<path fill-rule="evenodd" clip-rule="evenodd" d="M89.6383 21.6358C88.8722 21.6358 88.291 21.9819 87.8914 22.6736C87.5497 23.2463 87.3801 23.9435 87.3801 24.7676C87.3801 25.5676 87.5497 26.2533 87.8914 26.8251C88.3034 27.5167 88.8791 27.8628 89.621 27.8628C90.3484 27.8628 90.9191 27.5107 91.3307 26.8075C91.6833 26.2232 91.8598 25.5305 91.8598 24.7315C91.8598 23.932 91.6902 23.2463 91.3486 22.6736C90.9489 21.9819 90.3781 21.6358 89.6383 21.6358Z" fill="white"/>
<path fill-rule="evenodd" clip-rule="evenodd" d="M106.624 9.44118C106.462 9.17836 106.214 9.04645 105.878 9.04645C105.573 9.04645 105.324 9.17485 105.134 9.43216C104.978 9.6373 104.886 9.88257 104.856 10.169H106.805C106.812 9.88808 106.751 9.64532 106.624 9.44118Z" fill="white"/>
<mask id="mask0_0_899" style="mask-type:alpha" maskUnits="userSpaceOnUse" x="0" y="0" width="120" height="37">
<path fill-rule="evenodd" clip-rule="evenodd" d="M119.669 0.50177L0 0.50177V36.7817H119.669V0.50177V0.50177Z" fill="white"/>
</mask>
<g mask="url(#mask0_0_899)">
<path fill-rule="evenodd" clip-rule="evenodd" d="M108.477 25.204H102.762C102.785 26.0607 103.061 26.7157 103.591 27.1676C104.073 27.5719 104.696 27.774 105.46 27.774C106.306 27.774 107.078 27.6371 107.772 27.3632L108.07 28.7014C107.259 29.0586 106.301 29.2371 105.196 29.2371C103.867 29.2371 102.823 28.8419 102.064 28.0499C101.307 27.2594 100.926 26.1976 100.926 24.8649C100.926 23.5573 101.279 22.4679 101.986 21.5997C102.725 20.6723 103.726 20.2088 104.984 20.2088C106.219 20.2088 107.155 20.6723 107.79 21.5997C108.294 22.3375 108.547 23.2483 108.547 24.3302C108.547 24.6753 108.524 24.9667 108.477 25.204ZM99.9074 9.84285C99.8797 9.93564 99.8638 10.0495 99.8638 10.1839V12.7459H98.9286V6.53047H99.8638V9.09852H99.8812C100.176 8.63156 100.599 8.39833 101.146 8.39833C101.534 8.39833 101.855 8.52673 102.11 8.78353C102.427 9.10504 102.586 9.58153 102.586 10.2125V12.7459H101.649V10.3239C101.649 9.55997 101.366 9.17827 100.801 9.17827C100.367 9.17827 100.07 9.39996 99.9074 9.84285ZM100.028 22.0992C99.8395 22.0636 99.6387 22.0461 99.4274 22.0461C98.7575 22.0461 98.2393 22.3024 97.8744 22.814C97.557 23.2659 97.3983 23.8367 97.3983 24.5264V29.0766H95.4942L95.5121 23.1355C95.5121 22.1354 95.4873 21.2255 95.4402 20.4049H97.0998L97.1697 22.0636H97.2218C97.4226 21.4939 97.74 21.0349 98.1749 20.6908C98.5988 20.3809 99.0575 20.2264 99.5514 20.2264C99.7279 20.2264 99.8866 20.2389 100.028 20.262V22.0992ZM95.0633 8.4856H95.6792V7.70515L96.5975 7.42528V8.4856H97.6284V9.19532H96.5975V11.2643C96.5975 11.7905 96.7805 12.0533 97.1435 12.0533C97.3111 12.0533 97.4504 12.0387 97.5605 12.0091L97.5848 12.7284C97.3998 12.7981 97.1574 12.8337 96.8574 12.8337C96.4874 12.8337 96.1993 12.7194 95.9916 12.4916C95.7823 12.2634 95.6792 11.8807 95.6792 11.3436V9.19532H95.0633V8.4856ZM92.7074 27.9521C91.919 28.8328 90.8717 29.2722 89.5666 29.2722C88.3086 29.2722 87.3069 28.8504 86.5602 28.0058C85.8134 27.1616 85.44 26.0963 85.44 24.8122C85.44 23.468 85.8238 22.3676 86.5949 21.5114C87.3645 20.6547 88.4028 20.2264 89.7079 20.2264C90.9664 20.2264 91.9785 20.6482 92.7426 21.4939C93.4721 22.3144 93.8365 23.3727 93.8365 24.6693C93.8365 26.002 93.4597 27.0959 92.7074 27.9521ZM84.3635 21.8505H82.264V26.0607C82.264 27.1315 82.6339 27.6672 83.3757 27.6672C83.7159 27.6672 83.9985 27.6371 84.2221 27.5779L84.2742 29.041C83.8993 29.1834 83.4055 29.2547 82.7926 29.2547C82.0408 29.2547 81.4527 29.0224 81.0288 28.5595C80.6063 28.095 80.3936 27.3156 80.3936 26.2217V21.8505H79.1425V20.4049H80.3936V18.8165L82.264 18.2457V20.4049H84.3635V21.8505ZM77.455 12.7459L77.4114 12.0618H77.3851C77.1198 12.5819 76.6681 12.8422 76.0329 12.8422C75.5251 12.8422 75.1026 12.6406 74.7679 12.2374C74.4327 11.8341 74.2651 11.3115 74.2651 10.6684C74.2651 9.97878 74.4466 9.42053 74.8111 8.99419C75.1636 8.59645 75.5965 8.39833 76.1112 8.39833C76.6765 8.39833 77.0727 8.59093 77.2979 8.97664H77.3152V6.53047H78.2524V11.5978C78.2524 12.0126 78.2628 12.3948 78.2856 12.7459H77.455ZM77.0098 28.2019C76.2352 28.9046 75.1567 29.2547 73.7712 29.2547C72.4924 29.2547 71.466 29.0049 70.6894 28.5053L71.1312 26.8993C71.9668 27.4109 72.8846 27.6672 73.8848 27.6672C74.6018 27.6672 75.1602 27.5027 75.5618 27.1757C75.961 26.8481 76.1603 26.4093 76.1603 25.8615C76.1603 25.3735 75.9962 24.9622 75.6665 24.6287C75.3382 24.2951 74.7903 23.9852 74.0261 23.6983C71.9445 22.9128 70.9041 21.7627 70.9041 20.2495C70.9041 19.2609 71.2691 18.4503 71.9985 17.8188C72.726 17.1874 73.6964 16.8714 74.9093 16.8714C75.9907 16.8714 76.8898 17.0625 77.6068 17.4427L77.1302 19.0131C76.4603 18.6444 75.7031 18.4598 74.8547 18.4598C74.1848 18.4598 73.6612 18.6264 73.2863 18.9594C72.9684 19.2568 72.8098 19.6195 72.8098 20.0483C72.8098 20.5238 72.9912 20.9165 73.3562 21.2255C73.6736 21.5114 74.2493 21.8204 75.0853 22.1539C76.1078 22.5707 76.86 23.0578 77.3435 23.616C77.825 24.1758 78.0655 24.8719 78.0655 25.7045C78.0655 26.7272 77.7149 27.5594 77.0098 28.2019ZM69.5068 11.5888C69.5068 11.0687 69.721 10.6714 70.1524 10.3966C70.5833 10.1222 71.1888 9.9873 71.9688 9.99332V9.91407C71.9688 9.35332 71.6772 9.07294 71.0945 9.07294C70.679 9.07294 70.3126 9.17827 69.9967 9.38843L69.8068 8.76598C70.1975 8.52071 70.681 8.39833 71.2517 8.39833C72.3526 8.39833 72.904 8.98516 72.904 10.1598V11.7293C72.904 12.1556 72.9248 12.4947 72.965 12.7459H72.124L72.054 12.2549H72.0283C71.7402 12.6466 71.3301 12.8422 70.798 12.8422C70.3998 12.8422 70.079 12.7138 69.8365 12.4565C69.6164 12.2228 69.5068 11.9334 69.5068 11.5888ZM67.8783 12.1932C67.4911 12.6261 66.9764 12.8422 66.3362 12.8422C65.7164 12.8422 65.2245 12.6351 64.858 12.2198C64.4916 11.805 64.3081 11.2819 64.3081 10.6509C64.3081 9.99082 64.497 9.45012 64.8754 9.0288C65.2542 8.60798 65.7635 8.39833 66.4041 8.39833C67.0235 8.39833 67.5188 8.60547 67.8962 9.02027C68.2537 9.42354 68.4332 9.94367 68.4332 10.5807C68.4332 11.2352 68.2483 11.7729 67.8783 12.1932ZM65.8577 28.1301C65.1531 28.892 64.2769 29.2722 63.2301 29.2722C62.101 29.2722 61.2893 28.8619 60.7964 28.0414H60.7612V32.6092H58.856V23.2599C58.856 22.332 58.8322 21.381 58.7856 20.4049H60.4612L60.5673 21.7787H60.6025C61.2372 20.7435 62.2002 20.2264 63.4954 20.2264C64.5055 20.2264 65.3499 20.6306 66.0273 21.4392C66.7021 22.2492 67.0408 23.3136 67.0408 24.6337C67.0408 26.1083 66.6466 27.2745 65.8577 28.1301ZM57.8777 9.48824C57.7046 9.69539 57.6179 9.93865 57.6179 10.2185V12.7459H56.6817V9.70442C56.6817 9.32974 56.6702 8.92397 56.6474 8.4856H57.4701L57.5137 9.15118H57.54C57.6491 8.94504 57.8112 8.773 58.025 8.63707C58.2788 8.47808 58.5625 8.39833 58.8739 8.39833C59.2676 8.39833 59.5939 8.52673 59.8537 8.78353C60.1775 9.09902 60.3392 9.5695 60.3392 10.195V12.7459H59.403V10.3063C59.403 9.55395 59.1198 9.17827 58.5536 9.17827C58.2764 9.17827 58.0512 9.28159 57.8777 9.48824ZM55.9983 28.1301C55.2922 28.892 54.4165 29.2722 53.3698 29.2722C52.2412 29.2722 51.4294 28.8619 50.9355 28.0414H50.9003V32.6092H48.9952V23.2599C48.9952 22.332 48.9714 21.381 48.9248 20.4049H50.6003L50.7064 21.7787H50.7417C51.3769 20.7435 52.3408 20.2264 53.6345 20.2264C54.6461 20.2264 55.4896 20.6306 56.166 21.4392C56.8418 22.2492 57.18 23.3136 57.18 24.6337C57.18 26.1083 56.7863 27.2745 55.9983 28.1301ZM47.9112 12.1932C47.524 12.6261 47.0098 12.8422 46.3686 12.8422C45.7502 12.8422 45.2579 12.6351 44.8904 12.2198C44.5245 11.805 44.341 11.2819 44.341 10.6509C44.341 9.99082 44.5294 9.45012 44.9083 9.0288C45.2866 8.60798 45.7964 8.39833 46.4375 8.39833C47.0564 8.39833 47.5527 8.60547 47.9286 9.02027C48.2861 9.42354 48.4661 9.94367 48.4661 10.5807C48.4661 11.2352 48.2812 11.7729 47.9112 12.1932ZM45.3084 29.0766L44.1972 25.5435H40.3339L39.2752 29.0766H37.3002L41.1278 17.0504H43.4916L47.337 29.0766H45.3084ZM27.7924 26.4163C26.8562 27.8327 25.8749 29.2165 24.3169 29.2421C22.8035 29.2777 22.2947 28.3413 20.5582 28.3413C18.8058 28.3413 18.2638 29.2165 16.8119 29.2777C15.3283 29.3334 14.1942 27.766 13.2243 26.3626C11.285 23.4971 9.77504 18.2873 11.7997 14.7422C12.7805 13.0038 14.5696 11.8842 16.4812 11.8542C17.9663 11.8231 19.3453 12.8683 20.2582 12.8683C21.1537 12.8683 22.8575 11.6179 24.6154 11.8045C25.3502 11.8256 27.4433 12.0979 28.7931 14.0892C28.684 14.1554 26.3003 15.5723 26.3261 18.4849C26.3559 21.9764 29.3455 23.13 29.3817 23.1425C29.3638 23.2233 28.9136 24.8077 27.7924 26.4163ZM21.2762 7.98152C22.0899 7.01449 23.5036 6.27517 24.6337 6.22452C24.782 7.58829 24.2474 8.932 23.4669 9.92009C22.6522 10.8926 21.3486 11.6355 20.0792 11.5402C19.9131 10.2286 20.5567 8.83269 21.2762 7.98152ZM38.4307 6.91618C38.9281 6.83493 39.4646 6.7938 40.0433 6.7938C41.0658 6.7938 41.8369 7.0185 42.357 7.46891C42.9397 7.97701 43.2322 8.70479 43.2322 9.65125C43.2322 10.7151 42.9174 11.5156 42.2871 12.0533C41.7035 12.5498 40.8744 12.7981 39.8008 12.7981C39.2683 12.7981 38.8121 12.775 38.4307 12.7284V6.91618ZM50.3464 8.4856L50.8225 10.5104C50.938 10.9894 51.0327 11.4454 51.1091 11.8777H51.1255C51.1954 11.5216 51.3104 11.0687 51.4726 10.519L52.0706 8.4856H52.8327L53.4055 10.4753C53.5438 10.9604 53.6564 11.4283 53.7426 11.8777H53.7689C53.8329 11.4399 53.9281 10.9724 54.0555 10.4753L54.5663 8.4856H55.4851L54.1676 12.7459H53.3102L52.7638 10.8962C52.6255 10.4347 52.5129 9.97577 52.4256 9.51984H52.4088C52.3279 9.9873 52.2154 10.4462 52.0706 10.8962L51.4904 12.7459H50.6231L49.384 8.4856H50.3464ZM61.986 12.7454H62.9212V6.53047H61.986V12.7454ZM82.735 9.0288C83.1139 8.60798 83.6236 8.39833 84.2653 8.39833C84.8831 8.39833 85.3805 8.60547 85.7559 9.02027C86.1134 9.42354 86.2934 9.94367 86.2934 10.5807C86.2934 11.2352 86.1084 11.7729 85.7385 12.1932C85.3507 12.6261 84.838 12.8422 84.1959 12.8422C83.578 12.8422 83.0861 12.6351 82.7177 12.2198C82.3512 11.805 82.1683 11.2819 82.1683 10.6509C82.1683 9.99082 82.3567 9.45012 82.735 9.0288ZM88.4588 8.4856L88.5025 9.15118H88.5288C88.6384 8.94504 88.8005 8.773 89.0137 8.63707C89.2686 8.47808 89.5512 8.39833 89.8631 8.39833C90.2559 8.39833 90.5822 8.52673 90.8425 8.78353C91.1668 9.09902 91.3274 9.5695 91.3274 10.195V12.7459H90.3922V10.3063C90.3922 9.55395 90.1096 9.17827 89.5423 9.17827C89.2646 9.17827 89.04 9.28159 88.8669 9.48824C88.6944 9.69539 88.6071 9.93865 88.6071 10.2185V12.7459H87.6699V9.70442C87.6699 9.32974 87.6595 8.92397 87.6367 8.4856H88.4588ZM104.476 9.07294C104.839 8.61701 105.329 8.3893 105.949 8.3893C106.554 8.3893 107.015 8.61701 107.326 9.07294C107.575 9.43558 107.699 9.88248 107.699 10.4141C107.699 10.5837 107.687 10.7266 107.664 10.8435H104.856C104.869 11.2643 105.003 11.5858 105.263 11.8075C105.5 12.0066 105.807 12.1059 106.183 12.1059C106.598 12.1059 106.977 12.0387 107.319 11.9043L107.465 12.5619C107.065 12.7369 106.596 12.8247 106.052 12.8247C105.399 12.8247 104.886 12.6306 104.514 12.2419C104.141 11.8531 103.956 11.3315 103.956 10.677C103.956 10.0345 104.129 9.49928 104.476 9.07294ZM0 36.7817H119.669V0.501587H0V36.7817Z" fill="white"/>
</g>
<path fill-rule="evenodd" clip-rule="evenodd" d="M104.842 21.5468C104.219 21.5468 103.713 21.8081 103.326 22.3322C103.008 22.7485 102.819 23.2481 102.762 23.8309H106.73C106.742 23.2596 106.618 22.7666 106.36 22.3498C106.03 21.8141 105.524 21.5468 104.842 21.5468Z" fill="white"/>
</svg>
