<svg width="32" height="32" viewBox="0 0 32 32" fill="none" xmlns="http://www.w3.org/2000/svg">
<path fill-rule="evenodd" clip-rule="evenodd" d="M16 31C24.2843 31 31 24.2843 31 16C31 7.71573 24.2843 1 16 1C7.71573 1 1 7.71573 1 16C1 24.2843 7.71573 31 16 31Z" stroke="black"/>
<path fill-rule="evenodd" clip-rule="evenodd" d="M15.9993 19.3469C16.2002 19.3469 16.3646 19.5105 16.3646 19.7103V21.1818L16.6751 21.1455C19.013 20.8366 20.8395 19.0017 21.1501 16.6946L21.1865 16.3858H19.7071C19.5062 16.3858 19.3418 16.2223 19.3418 16.0224C19.3418 15.8226 19.5062 15.6591 19.7071 15.6591H21.1865L21.1501 15.3502C20.8395 13.0249 18.9947 11.2082 16.6751 10.8994L16.3646 10.8449V12.3164C16.3646 12.5163 16.2002 12.6797 15.9993 12.6797C15.7983 12.6797 15.6339 12.5163 15.6339 12.3164V10.8449L15.3235 10.8812C12.9855 11.19 11.159 13.0249 10.8485 15.3321L10.7937 15.6591H12.2732C12.4741 15.6591 12.6385 15.8226 12.6385 16.0224C12.6385 16.2223 12.4741 16.3858 12.2732 16.3858H10.7937L10.8302 16.6946C11.1407 19.0199 12.9855 20.8366 15.3052 21.1455L15.6157 21.1818V19.7103C15.6339 19.5105 15.7983 19.3469 15.9993 19.3469ZM15.9993 23.7978C15.7983 23.7978 15.6339 23.6343 15.6339 23.4345V21.9448L15.3965 21.9266C12.6202 21.636 10.3736 19.4196 10.0996 16.6582L10.0448 16.3858H8.56534C8.36447 16.3858 8.20007 16.2223 8.20007 16.0224C8.20007 15.8226 8.36447 15.6591 8.56534 15.6591H10.0631L10.0813 15.4229C10.3736 12.6615 12.6019 10.427 15.3783 10.1546L15.6157 10.1364V8.62856C15.6157 8.42871 15.7801 8.2652 15.981 8.2652C16.1819 8.2652 16.3463 8.42871 16.3463 8.62856V10.1182L16.5837 10.1364C19.3601 10.427 21.6067 12.6434 21.8807 15.4048L21.8989 15.6409H23.3967C23.5975 15.6409 23.7619 15.8044 23.7619 16.0042C23.7619 16.2041 23.5975 16.3676 23.3967 16.3676H21.8989L21.8807 16.6037C21.5884 19.3651 19.3601 21.5996 16.5837 21.8721L16.3646 21.9448V23.4345C16.3646 23.6343 16.2002 23.7978 15.9993 23.7978Z" fill="#020202"/>
<mask id="mask0_0_1636" style="mask-type:alpha" maskUnits="userSpaceOnUse" x="8" y="8" width="16" height="16">
<path fill-rule="evenodd" clip-rule="evenodd" d="M23.9619 23.9968H8V8.06631H23.9619V23.9968Z" fill="white"/>
</mask>
<g mask="url(#mask0_0_1636)">
<path fill-rule="evenodd" clip-rule="evenodd" d="M11.0186 16.5847L11.0289 16.6713C11.3252 18.8905 13.0947 20.6505 15.3317 20.9483L15.4157 20.9581L15.4165 19.6923C15.4444 19.3871 15.7003 19.148 15.9992 19.148C16.3109 19.148 16.5645 19.4002 16.5645 19.7103V20.9581L16.6517 20.9479C18.8829 20.6531 20.6523 18.8931 20.9518 16.6682L20.9617 16.5847H19.7071C19.3953 16.5847 19.1418 16.3324 19.1418 16.0225C19.1418 15.7124 19.3953 15.4602 19.7071 15.4602H20.9617L20.9514 15.3735C20.655 13.1543 18.8855 11.3944 16.6485 11.0965L16.5645 11.082V12.3164C16.5645 12.6264 16.3109 12.8786 15.9992 12.8786C15.6875 12.8786 15.4339 12.6264 15.4339 12.3164V11.0686L15.3468 11.0787C13.1156 11.3736 11.3461 13.1336 11.0467 15.3584L11.0297 15.4602H12.2731C12.5849 15.4602 12.8385 15.7124 12.8385 16.0225C12.8385 16.3324 12.5849 16.5847 12.2731 16.5847H11.0186ZM16.1645 21.4055V19.7103C16.1645 19.6196 16.0904 19.5458 15.9992 19.5458C15.9091 19.5458 15.8282 19.6237 15.8157 19.7208V21.4055L15.2818 21.343C12.8631 21.0211 10.9523 19.1205 10.632 16.7207L10.5687 16.1868H12.2731C12.3643 16.1868 12.4385 16.1131 12.4385 16.0225C12.4385 15.9317 12.3643 15.858 12.2731 15.858H10.5575L10.6512 15.2994C10.9735 12.9032 12.8844 11.0028 15.2971 10.684L15.8339 10.6212V12.3164C15.8339 12.407 15.9081 12.4808 15.9992 12.4808C16.0904 12.4808 16.1645 12.407 16.1645 12.3164V10.6078L16.7057 10.7028C19.1193 11.0259 21.028 12.9257 21.3483 15.324L21.4115 15.858H19.7071C19.6159 15.858 19.5418 15.9317 19.5418 16.0225C19.5418 16.1131 19.6159 16.1868 19.7071 16.1868H21.4115L21.3487 16.7178C21.0249 19.1235 19.1141 21.024 16.7014 21.3426L16.1645 21.4055ZM8.56533 15.858C8.47413 15.858 8.4 15.9317 8.4 16.0225C8.4 16.1131 8.47413 16.1868 8.56533 16.1868H10.2088L10.2986 16.6387C10.5632 19.3053 12.7159 21.446 15.4174 21.7288L15.8339 21.7605V23.4345C15.8339 23.5251 15.9081 23.5989 15.9992 23.5989C16.0904 23.5989 16.1645 23.5251 16.1645 23.4345V21.8014L16.5418 21.6764L16.5641 21.6741C19.2451 21.411 21.3973 19.2699 21.6817 16.583L21.7137 16.1687H23.3966C23.4878 16.1687 23.5619 16.0949 23.5619 16.0042C23.5619 15.9136 23.4878 15.8398 23.3966 15.8398H21.7137L21.6812 15.42C21.4171 12.7577 19.2643 10.617 16.5628 10.3342L16.1463 10.3024V8.62854C16.1463 8.5379 16.0721 8.4641 15.981 8.4641C15.8898 8.4641 15.8157 8.5379 15.8157 8.62854V10.3205L15.3936 10.3529C12.7169 10.6156 10.5646 12.7568 10.2802 15.4437L10.2483 15.858H8.56533ZM15.9992 23.9968C15.6875 23.9968 15.4339 23.7445 15.4339 23.4345V22.129L15.3812 22.125C12.4896 21.8223 10.1891 19.5366 9.90153 16.6877L9.88087 16.5847H8.56533C8.2536 16.5847 8 16.3324 8 16.0225C8 15.7124 8.2536 15.4602 8.56533 15.4602H9.87787L9.88193 15.4076C10.1866 12.5283 12.4896 10.2382 15.3586 9.95662L15.4157 9.95218V8.62854C15.4157 8.31849 15.6693 8.06625 15.981 8.06625C16.2927 8.06625 16.5463 8.31849 16.5463 8.62854V9.93394L16.5991 9.93799C19.494 10.241 21.7965 12.5317 22.0797 15.3852L22.0841 15.442H23.3966C23.7083 15.442 23.9619 15.6942 23.9619 16.0042C23.9619 16.3143 23.7083 16.5665 23.3966 16.5665H22.0841L22.08 16.619C21.7761 19.4908 19.4843 21.7764 16.6259 22.0678L16.5645 22.0882V23.4345C16.5645 23.7445 16.3109 23.9968 15.9992 23.9968Z" fill="black"/>
</g>
</svg>
