<svg width="125" height="124" viewBox="0 0 125 124" fill="none" xmlns="http://www.w3.org/2000/svg">
<path fill-rule="evenodd" clip-rule="evenodd" d="M62.4932 123.69C96.571 123.69 124.197 96.0646 124.197 61.9868C124.197 27.909 96.571 0.283447 62.4932 0.283447C28.4154 0.283447 0.789917 27.909 0.789917 61.9868C0.789917 96.0646 28.4154 123.69 62.4932 123.69Z" fill="#2FBCF7" style="mix-blend-mode:multiply"/>
<path fill-rule="evenodd" clip-rule="evenodd" d="M62.5 21C39.5807 21 21 39.5807 21 62.5C21 85.4193 39.5807 104 62.5 104C85.4193 104 104 85.4193 104 62.5C104 39.5807 85.4193 21 62.5 21ZM62.5 24.7728C83.3028 24.7728 100.227 41.6972 100.227 62.5C100.227 70.9019 97.4317 78.6472 92.7685 84.925C87.3246 76.2591 78.5983 70.4378 68.6081 68.7326C73.8936 66.386 77.591 61.1079 77.591 54.9546C77.591 46.6205 70.8339 39.8636 62.5 39.8636C54.1661 39.8636 47.409 46.6205 47.409 54.9546C47.409 61.1079 51.1064 66.3821 56.3919 68.7326C46.4017 70.4378 37.6754 76.2591 32.2315 84.925C27.5683 78.6472 24.7728 70.9019 24.7728 62.5C24.7728 41.6972 41.6972 24.7728 62.5 24.7728ZM51.1818 54.9546C51.1818 48.7144 56.26 43.6364 62.5 43.6364C68.74 43.6364 73.8182 48.7144 73.8182 54.9546C73.8182 61.1946 68.74 66.2728 62.5 66.2728C56.26 66.2728 51.1818 61.1946 51.1818 54.9546ZM62.5 100.227C51.5364 100.227 41.682 95.5001 34.7856 88.0075C40.5126 78.0738 50.9139 71.9318 62.5 71.9318C74.0861 71.9318 84.4874 78.0738 90.2144 88.0075C83.318 95.5001 73.4636 100.227 62.5 100.227Z" fill="black"/>
</svg>
